# xmcd
# 
# Track frame offsets:
#     182
#     25675
#     36830
#     55270
#     61127
#     71512
#     89052
#     109360
#     118812
#     130030
#     141685
#     152342
#     162805
#     172500
#     188062
#     200660
#     211355
#     223302
#     240370
# 
# Disc length: 3502
# 
# Revision: 3
# Processed by: cddbd v1.5.2PL0 Copyright (c) Steve Scherf et al.
# Submitted via: BonkEnc v1.0
# 
DISCID=120dac13
DTITLE=Various Artist - Great Guitarists Volume 1 (Selected Sound Carrier 1994)
DYEAR=1994
DGENRE=Rock
TTITLE0=clapton - she´s so respectable
TTITLE1=page - think it over
TTITLE2=hendrix - good feeling
TTITLE3=clapton - choker
TTITLE4=lee - down the line
TTITLE5=hendrix - hot trigger
TTITLE6=page - burn up
TTITLE7=sullivan - boll weevil song
TTITLE8=clapton - shake drive
TTITLE9=hendrix - psycho
TTITLE10=page - fabulous
TTITLE11=clapton - got to hurry
TTITLE12=sullivan - livin' lovin' wreck
TTITLE13=hendrix - lime time
TTITLE14=clapton - freight loader
TTITLE15=page - dixie fried
TTITLE16=sullivan - breathless
TTITLE17=clapton - big boss man
TTITLE18=clapton - five long years
EXTD=featuring Eric Clapton, Jimmy Page, Albert Lee, Jim Sullivan, Jimi Hendrix
EXTT0=Eric Clapton
EXTT1=Jimmy Page
EXTT2=Jimmi Hendrix
EXTT3=Eric Clapton
EXTT4=Orbison
EXTT5=Jimi Hendrix
EXTT6=Jimmy Page, Hopkins
EXTT7=Cochran, Cadeheart
EXTT8=Eric Clapton, Jimmy Page
EXTT9=Jimmi Hendrix
EXTT10=Lane/Shelson, Jimmy Page
EXTT11=Rasputin, Eric Clapton
EXTT12=Blackwell, A. Lee/J. Sullivan
EXTT13=Jimmi Hendrix
EXTT14=Eric Clapton, Jimmy Page
EXTT15=Perkins, Criffin, Jimmy Page
EXTT16=Blackwell, A. Lee
EXTT17=Dixon, Smith, Eric Clapton
EXTT18=Clapton, David, Boyd, Eric Clapton
PLAYORDER=
